<mxfile host="app.diagrams.net" agent="Mozilla/5.0 (Windows NT 10.0; Win64; x64) AppleWebKit/537.36 (KHTML, like Gecko) Chrome/139.0.0.0 Safari/537.36" version="28.2.3">
  <diagram name="ページ1" id="bnUHOc3gIqxt6xc1CxY-">
    <mxGraphModel dx="2907" dy="1703" grid="1" gridSize="10" guides="1" tooltips="1" connect="1" arrows="1" fold="1" page="1" pageScale="1" pageWidth="4681" pageHeight="3300" math="0" shadow="0">
      <root>
        <mxCell id="0" />
        <mxCell id="1" parent="0" />
        <mxCell id="ezP-FfUYO0c9itSm-DeL-23" value="職員" style="shape=umlActor;verticalLabelPosition=bottom;verticalAlign=top;html=1;outlineConnect=0;" vertex="1" parent="1">
          <mxGeometry x="120" y="540" width="30" height="60" as="geometry" />
        </mxCell>
        <mxCell id="ezP-FfUYO0c9itSm-DeL-24" value="ログイン画面" style="shape=umlBoundary;whiteSpace=wrap;html=1;" vertex="1" parent="1">
          <mxGeometry x="210" y="610" width="100" height="80" as="geometry" />
        </mxCell>
        <mxCell id="ezP-FfUYO0c9itSm-DeL-25" value="ログイン" style="text;html=1;align=center;verticalAlign=middle;whiteSpace=wrap;rounded=0;" vertex="1" parent="1">
          <mxGeometry x="130" y="635" width="60" height="30" as="geometry" />
        </mxCell>
        <mxCell id="ezP-FfUYO0c9itSm-DeL-26" value="職員認証" style="ellipse;shape=umlControl;whiteSpace=wrap;html=1;" vertex="1" parent="1">
          <mxGeometry x="370" y="610" width="70" height="80" as="geometry" />
        </mxCell>
        <mxCell id="ezP-FfUYO0c9itSm-DeL-27" value="" style="endArrow=classic;html=1;rounded=0;entryX=0.015;entryY=0.502;entryDx=0;entryDy=0;entryPerimeter=0;" edge="1" parent="1" source="ezP-FfUYO0c9itSm-DeL-24" target="ezP-FfUYO0c9itSm-DeL-26">
          <mxGeometry width="50" height="50" relative="1" as="geometry">
            <mxPoint x="530" y="670" as="sourcePoint" />
            <mxPoint x="580" y="620" as="targetPoint" />
          </mxGeometry>
        </mxCell>
        <mxCell id="ezP-FfUYO0c9itSm-DeL-28" value="" style="endArrow=classic;html=1;rounded=0;entryX=-0.025;entryY=0.429;entryDx=0;entryDy=0;entryPerimeter=0;" edge="1" parent="1" source="ezP-FfUYO0c9itSm-DeL-23" target="ezP-FfUYO0c9itSm-DeL-24">
          <mxGeometry width="50" height="50" relative="1" as="geometry">
            <mxPoint x="530" y="670" as="sourcePoint" />
            <mxPoint x="580" y="620" as="targetPoint" />
          </mxGeometry>
        </mxCell>
        <mxCell id="ezP-FfUYO0c9itSm-DeL-29" value="予約受付画面" style="shape=umlBoundary;whiteSpace=wrap;html=1;" vertex="1" parent="1">
          <mxGeometry x="490" y="490" width="100" height="80" as="geometry" />
        </mxCell>
        <mxCell id="ezP-FfUYO0c9itSm-DeL-30" value="" style="endArrow=classic;html=1;rounded=0;exitX=1;exitY=0.3333333333333333;exitDx=0;exitDy=0;exitPerimeter=0;entryX=0.011;entryY=0.385;entryDx=0;entryDy=0;entryPerimeter=0;" edge="1" parent="1" source="ezP-FfUYO0c9itSm-DeL-23" target="ezP-FfUYO0c9itSm-DeL-29">
          <mxGeometry width="50" height="50" relative="1" as="geometry">
            <mxPoint x="530" y="670" as="sourcePoint" />
            <mxPoint x="580" y="620" as="targetPoint" />
          </mxGeometry>
        </mxCell>
        <mxCell id="ezP-FfUYO0c9itSm-DeL-31" value="" style="endArrow=classic;html=1;rounded=0;exitX=0.956;exitY=0.429;exitDx=0;exitDy=0;exitPerimeter=0;entryX=-0.036;entryY=0.532;entryDx=0;entryDy=0;entryPerimeter=0;" edge="1" parent="1" source="ezP-FfUYO0c9itSm-DeL-26" target="ezP-FfUYO0c9itSm-DeL-29">
          <mxGeometry width="50" height="50" relative="1" as="geometry">
            <mxPoint x="530" y="670" as="sourcePoint" />
            <mxPoint x="480" y="530" as="targetPoint" />
          </mxGeometry>
        </mxCell>
        <mxCell id="ezP-FfUYO0c9itSm-DeL-32" value="OK" style="text;html=1;align=center;verticalAlign=middle;whiteSpace=wrap;rounded=0;" vertex="1" parent="1">
          <mxGeometry x="430" y="540" width="60" height="30" as="geometry" />
        </mxCell>
        <mxCell id="ezP-FfUYO0c9itSm-DeL-33" value="職員&lt;div&gt;アカウント&lt;/div&gt;" style="ellipse;shape=umlEntity;whiteSpace=wrap;html=1;" vertex="1" parent="1">
          <mxGeometry x="510" y="610" width="80" height="80" as="geometry" />
        </mxCell>
        <mxCell id="ezP-FfUYO0c9itSm-DeL-34" value="" style="endArrow=classic;html=1;rounded=0;exitX=1.04;exitY=0.532;exitDx=0;exitDy=0;exitPerimeter=0;entryX=0;entryY=0.5;entryDx=0;entryDy=0;" edge="1" parent="1" source="ezP-FfUYO0c9itSm-DeL-26" target="ezP-FfUYO0c9itSm-DeL-33">
          <mxGeometry width="50" height="50" relative="1" as="geometry">
            <mxPoint x="530" y="670" as="sourcePoint" />
            <mxPoint x="580" y="620" as="targetPoint" />
          </mxGeometry>
        </mxCell>
        <mxCell id="ezP-FfUYO0c9itSm-DeL-35" value="認証照合" style="text;html=1;align=center;verticalAlign=middle;whiteSpace=wrap;rounded=0;" vertex="1" parent="1">
          <mxGeometry x="450" y="620" width="60" height="30" as="geometry" />
        </mxCell>
        <mxCell id="ezP-FfUYO0c9itSm-DeL-36" value="" style="rounded=1;whiteSpace=wrap;html=1;fillColor=none;" vertex="1" parent="1">
          <mxGeometry x="750" y="330" width="2110" height="550" as="geometry" />
        </mxCell>
        <mxCell id="ezP-FfUYO0c9itSm-DeL-37" value="基本フロー" style="text;html=1;align=center;verticalAlign=middle;whiteSpace=wrap;rounded=0;" vertex="1" parent="1">
          <mxGeometry x="1620" y="340" width="80" height="30" as="geometry" />
        </mxCell>
        <mxCell id="ezP-FfUYO0c9itSm-DeL-38" value="学生/教職員" style="shape=umlActor;verticalLabelPosition=bottom;verticalAlign=top;html=1;" vertex="1" parent="1">
          <mxGeometry x="830" y="480" width="30" height="60" as="geometry" />
        </mxCell>
        <mxCell id="ezP-FfUYO0c9itSm-DeL-39" value="会員確認&lt;div&gt;(本人確認)&lt;/div&gt;" style="ellipse;shape=umlControl;whiteSpace=wrap;html=1;" vertex="1" parent="1">
          <mxGeometry x="810" y="635" width="70" height="80" as="geometry" />
        </mxCell>
        <mxCell id="ezP-FfUYO0c9itSm-DeL-40" value="" style="endArrow=classic;html=1;rounded=0;entryX=0.994;entryY=0.4;entryDx=0;entryDy=0;entryPerimeter=0;" edge="1" parent="1" target="ezP-FfUYO0c9itSm-DeL-29">
          <mxGeometry width="50" height="50" relative="1" as="geometry">
            <mxPoint x="830" y="510" as="sourcePoint" />
            <mxPoint x="970" y="630" as="targetPoint" />
          </mxGeometry>
        </mxCell>
        <mxCell id="ezP-FfUYO0c9itSm-DeL-41" value="" style="endArrow=classic;html=1;rounded=0;exitX=1;exitY=0.5;exitDx=0;exitDy=0;" edge="1" parent="1" source="ezP-FfUYO0c9itSm-DeL-33" target="ezP-FfUYO0c9itSm-DeL-39">
          <mxGeometry width="50" height="50" relative="1" as="geometry">
            <mxPoint x="920" y="680" as="sourcePoint" />
            <mxPoint x="970" y="630" as="targetPoint" />
          </mxGeometry>
        </mxCell>
        <mxCell id="ezP-FfUYO0c9itSm-DeL-42" value="予約カード＋学生証　提示" style="text;html=1;align=center;verticalAlign=middle;whiteSpace=wrap;rounded=0;" vertex="1" parent="1">
          <mxGeometry x="600" y="490" width="150" height="30" as="geometry" />
        </mxCell>
        <mxCell id="ezP-FfUYO0c9itSm-DeL-43" value="資料検索画面&lt;div&gt;(署名/管理番号入力)&lt;/div&gt;" style="shape=umlBoundary;whiteSpace=wrap;html=1;" vertex="1" parent="1">
          <mxGeometry x="960" y="635" width="100" height="80" as="geometry" />
        </mxCell>
        <mxCell id="ezP-FfUYO0c9itSm-DeL-44" value="" style="endArrow=classic;html=1;rounded=0;entryX=-0.033;entryY=0.535;entryDx=0;entryDy=0;entryPerimeter=0;" edge="1" parent="1" target="ezP-FfUYO0c9itSm-DeL-43">
          <mxGeometry width="50" height="50" relative="1" as="geometry">
            <mxPoint x="880" y="675.4347826086957" as="sourcePoint" />
            <mxPoint x="1200" y="665" as="targetPoint" />
          </mxGeometry>
        </mxCell>
        <mxCell id="ezP-FfUYO0c9itSm-DeL-45" value="OK" style="text;html=1;align=center;verticalAlign=middle;whiteSpace=wrap;rounded=0;" vertex="1" parent="1">
          <mxGeometry x="890" y="650" width="60" height="30" as="geometry" />
        </mxCell>
        <mxCell id="ezP-FfUYO0c9itSm-DeL-46" value="入力検証" style="ellipse;shape=umlControl;whiteSpace=wrap;html=1;" vertex="1" parent="1">
          <mxGeometry x="1160" y="635" width="70" height="80" as="geometry" />
        </mxCell>
        <mxCell id="ezP-FfUYO0c9itSm-DeL-47" value="" style="endArrow=open;endFill=1;endSize=12;html=1;rounded=0;exitX=0.936;exitY=0.759;exitDx=0;exitDy=0;exitPerimeter=0;entryX=0.014;entryY=0.759;entryDx=0;entryDy=0;entryPerimeter=0;" edge="1" parent="1" source="ezP-FfUYO0c9itSm-DeL-43" target="ezP-FfUYO0c9itSm-DeL-46">
          <mxGeometry width="160" relative="1" as="geometry">
            <mxPoint x="1150" y="640" as="sourcePoint" />
            <mxPoint x="1310" y="640" as="targetPoint" />
          </mxGeometry>
        </mxCell>
        <mxCell id="ezP-FfUYO0c9itSm-DeL-48" value="" style="endArrow=classic;dashed=1;endFill=1;endSize=12;html=1;rounded=0;" edge="1" parent="1">
          <mxGeometry width="160" relative="1" as="geometry">
            <mxPoint x="1160" y="660" as="sourcePoint" />
            <mxPoint x="1060" y="660" as="targetPoint" />
          </mxGeometry>
        </mxCell>
        <mxCell id="ezP-FfUYO0c9itSm-DeL-49" value="A2:入力不備➞再入力" style="text;html=1;align=center;verticalAlign=middle;whiteSpace=wrap;rounded=0;" vertex="1" parent="1">
          <mxGeometry x="1050" y="635" width="120" height="30" as="geometry" />
        </mxCell>
        <mxCell id="ezP-FfUYO0c9itSm-DeL-50" value="書名/管理番号入力" style="text;html=1;align=center;verticalAlign=middle;whiteSpace=wrap;rounded=0;" vertex="1" parent="1">
          <mxGeometry x="1050" y="700" width="110" height="30" as="geometry" />
        </mxCell>
        <mxCell id="ezP-FfUYO0c9itSm-DeL-51" value="資料検索/&lt;div&gt;候補油出&lt;/div&gt;" style="ellipse;shape=umlControl;whiteSpace=wrap;html=1;" vertex="1" parent="1">
          <mxGeometry x="1360" y="640" width="70" height="80" as="geometry" />
        </mxCell>
        <mxCell id="ezP-FfUYO0c9itSm-DeL-53" value="" style="endArrow=classic;html=1;rounded=0;entryX=0.074;entryY=0.525;entryDx=0;entryDy=0;entryPerimeter=0;exitX=0.946;exitY=0.601;exitDx=0;exitDy=0;exitPerimeter=0;" edge="1" parent="1" source="ezP-FfUYO0c9itSm-DeL-46" target="ezP-FfUYO0c9itSm-DeL-51">
          <mxGeometry width="50" height="50" relative="1" as="geometry">
            <mxPoint x="1370" y="660" as="sourcePoint" />
            <mxPoint x="1420" y="610" as="targetPoint" />
          </mxGeometry>
        </mxCell>
        <mxCell id="ezP-FfUYO0c9itSm-DeL-54" value="形式チェックOK" style="text;html=1;align=center;verticalAlign=middle;whiteSpace=wrap;rounded=0;" vertex="1" parent="1">
          <mxGeometry x="1250" y="650" width="100" height="30" as="geometry" />
        </mxCell>
        <mxCell id="ezP-FfUYO0c9itSm-DeL-55" value="候補一覧/&lt;div&gt;選択画面&lt;/div&gt;" style="shape=umlBoundary;whiteSpace=wrap;html=1;" vertex="1" parent="1">
          <mxGeometry x="1480" y="560" width="100" height="80" as="geometry" />
        </mxCell>
        <mxCell id="ezP-FfUYO0c9itSm-DeL-56" value="" style="endArrow=classic;html=1;rounded=0;entryX=0.01;entryY=0.55;entryDx=0;entryDy=0;entryPerimeter=0;exitX=0.886;exitY=0.238;exitDx=0;exitDy=0;exitPerimeter=0;" edge="1" parent="1" source="ezP-FfUYO0c9itSm-DeL-51" target="ezP-FfUYO0c9itSm-DeL-55">
          <mxGeometry width="50" height="50" relative="1" as="geometry">
            <mxPoint x="1530" y="620" as="sourcePoint" />
            <mxPoint x="1580" y="570" as="targetPoint" />
          </mxGeometry>
        </mxCell>
        <mxCell id="ezP-FfUYO0c9itSm-DeL-57" value="候補一覧" style="text;html=1;align=center;verticalAlign=middle;whiteSpace=wrap;rounded=0;" vertex="1" parent="1">
          <mxGeometry x="1400" y="600" width="60" height="30" as="geometry" />
        </mxCell>
        <mxCell id="ezP-FfUYO0c9itSm-DeL-58" value="予約可否&lt;div&gt;判定&lt;/div&gt;" style="ellipse;shape=umlControl;whiteSpace=wrap;html=1;" vertex="1" parent="1">
          <mxGeometry x="1720" y="555" width="70" height="80" as="geometry" />
        </mxCell>
        <mxCell id="ezP-FfUYO0c9itSm-DeL-59" value="" style="endArrow=classic;html=1;rounded=0;" edge="1" parent="1" source="ezP-FfUYO0c9itSm-DeL-55" target="ezP-FfUYO0c9itSm-DeL-58">
          <mxGeometry width="50" height="50" relative="1" as="geometry">
            <mxPoint x="1800" y="610" as="sourcePoint" />
            <mxPoint x="1850" y="560" as="targetPoint" />
          </mxGeometry>
        </mxCell>
        <mxCell id="ezP-FfUYO0c9itSm-DeL-60" value="候補選択" style="text;html=1;align=center;verticalAlign=middle;whiteSpace=wrap;rounded=0;" vertex="1" parent="1">
          <mxGeometry x="1610" y="570" width="60" height="30" as="geometry" />
        </mxCell>
        <mxCell id="ezP-FfUYO0c9itSm-DeL-61" value="資料&lt;div&gt;(書籍/雑誌)&lt;/div&gt;" style="ellipse;shape=umlEntity;whiteSpace=wrap;html=1;" vertex="1" parent="1">
          <mxGeometry x="1880" y="635" width="80" height="80" as="geometry" />
        </mxCell>
        <mxCell id="ezP-FfUYO0c9itSm-DeL-62" value="" style="endArrow=classic;html=1;rounded=0;exitX=0.768;exitY=0.903;exitDx=0;exitDy=0;exitPerimeter=0;" edge="1" parent="1" source="ezP-FfUYO0c9itSm-DeL-58" target="ezP-FfUYO0c9itSm-DeL-61">
          <mxGeometry width="50" height="50" relative="1" as="geometry">
            <mxPoint x="1910" y="650" as="sourcePoint" />
            <mxPoint x="1960" y="600" as="targetPoint" />
          </mxGeometry>
        </mxCell>
        <mxCell id="ezP-FfUYO0c9itSm-DeL-63" value="種別確認&lt;div&gt;(書籍/雑誌)&lt;/div&gt;" style="text;html=1;align=center;verticalAlign=middle;whiteSpace=wrap;rounded=0;" vertex="1" parent="1">
          <mxGeometry x="1820" y="620" width="70" height="30" as="geometry" />
        </mxCell>
        <mxCell id="ezP-FfUYO0c9itSm-DeL-64" value="" style="endArrow=classic;html=1;rounded=0;entryX=0;entryY=0.5;entryDx=0;entryDy=0;" edge="1" parent="1" source="ezP-FfUYO0c9itSm-DeL-51" target="ezP-FfUYO0c9itSm-DeL-61">
          <mxGeometry width="50" height="50" relative="1" as="geometry">
            <mxPoint x="1910" y="790" as="sourcePoint" />
            <mxPoint x="1960" y="740" as="targetPoint" />
          </mxGeometry>
        </mxCell>
        <mxCell id="ezP-FfUYO0c9itSm-DeL-66" value="書籍/在庫検索" style="text;html=1;align=center;verticalAlign=middle;whiteSpace=wrap;rounded=0;" vertex="1" parent="1">
          <mxGeometry x="1590" y="650" width="90" height="30" as="geometry" />
        </mxCell>
        <mxCell id="ezP-FfUYO0c9itSm-DeL-67" value="会員" style="ellipse;shape=umlEntity;whiteSpace=wrap;html=1;" vertex="1" parent="1">
          <mxGeometry x="1930" y="430" width="80" height="80" as="geometry" />
        </mxCell>
        <mxCell id="ezP-FfUYO0c9itSm-DeL-69" value="" style="endArrow=classic;html=1;rounded=0;exitX=0.5;exitY=0.5;exitDx=0;exitDy=0;exitPerimeter=0;" edge="1" parent="1" source="ezP-FfUYO0c9itSm-DeL-38" target="ezP-FfUYO0c9itSm-DeL-67">
          <mxGeometry width="50" height="50" relative="1" as="geometry">
            <mxPoint x="510" y="700" as="sourcePoint" />
            <mxPoint x="560" y="650" as="targetPoint" />
          </mxGeometry>
        </mxCell>
        <mxCell id="ezP-FfUYO0c9itSm-DeL-70" value="会員照合" style="text;html=1;align=center;verticalAlign=middle;whiteSpace=wrap;rounded=0;" vertex="1" parent="1">
          <mxGeometry x="1310" y="455" width="60" height="30" as="geometry" />
        </mxCell>
        <mxCell id="ezP-FfUYO0c9itSm-DeL-71" value="予約登録" style="ellipse;shape=umlControl;whiteSpace=wrap;html=1;" vertex="1" parent="1">
          <mxGeometry x="1940" y="540" width="70" height="80" as="geometry" />
        </mxCell>
        <mxCell id="ezP-FfUYO0c9itSm-DeL-72" value="" style="endArrow=classic;html=1;rounded=0;entryX=0.092;entryY=0.494;entryDx=0;entryDy=0;entryPerimeter=0;" edge="1" parent="1">
          <mxGeometry width="50" height="50" relative="1" as="geometry">
            <mxPoint x="1783.4756290424439" y="602.2242805363746" as="sourcePoint" />
            <mxPoint x="1940" y="589.5200000000001" as="targetPoint" />
          </mxGeometry>
        </mxCell>
        <mxCell id="ezP-FfUYO0c9itSm-DeL-73" value="予約可" style="text;html=1;align=center;verticalAlign=middle;whiteSpace=wrap;rounded=0;" vertex="1" parent="1">
          <mxGeometry x="1825" y="565" width="60" height="30" as="geometry" />
        </mxCell>
        <mxCell id="ezP-FfUYO0c9itSm-DeL-75" value="予約内容確認/&lt;div&gt;完了画面&lt;/div&gt;" style="shape=umlBoundary;whiteSpace=wrap;html=1;" vertex="1" parent="1">
          <mxGeometry x="2200" y="480" width="100" height="80" as="geometry" />
        </mxCell>
        <mxCell id="ezP-FfUYO0c9itSm-DeL-76" value="予約" style="ellipse;shape=umlEntity;whiteSpace=wrap;html=1;" vertex="1" parent="1">
          <mxGeometry x="2220" y="600" width="80" height="80" as="geometry" />
        </mxCell>
        <mxCell id="ezP-FfUYO0c9itSm-DeL-77" value="" style="endArrow=classic;html=1;rounded=0;exitX=0.939;exitY=0.458;exitDx=0;exitDy=0;exitPerimeter=0;entryX=-0.001;entryY=0.532;entryDx=0;entryDy=0;entryPerimeter=0;" edge="1" parent="1" source="ezP-FfUYO0c9itSm-DeL-71" target="ezP-FfUYO0c9itSm-DeL-75">
          <mxGeometry width="50" height="50" relative="1" as="geometry">
            <mxPoint x="2310" y="650" as="sourcePoint" />
            <mxPoint x="2360" y="600" as="targetPoint" />
          </mxGeometry>
        </mxCell>
        <mxCell id="ezP-FfUYO0c9itSm-DeL-78" value="" style="endArrow=classic;html=1;rounded=0;" edge="1" parent="1" source="ezP-FfUYO0c9itSm-DeL-71" target="ezP-FfUYO0c9itSm-DeL-76">
          <mxGeometry width="50" height="50" relative="1" as="geometry">
            <mxPoint x="2310" y="650" as="sourcePoint" />
            <mxPoint x="2360" y="600" as="targetPoint" />
          </mxGeometry>
        </mxCell>
        <mxCell id="ezP-FfUYO0c9itSm-DeL-79" value="予約番号/内容表示" style="text;html=1;align=center;verticalAlign=middle;whiteSpace=wrap;rounded=0;" vertex="1" parent="1">
          <mxGeometry x="2040" y="520" width="120" height="30" as="geometry" />
        </mxCell>
        <mxCell id="ezP-FfUYO0c9itSm-DeL-80" value="予約レコード作成" style="text;html=1;align=center;verticalAlign=middle;whiteSpace=wrap;rounded=0;" vertex="1" parent="1">
          <mxGeometry x="2060" y="610" width="100" height="30" as="geometry" />
        </mxCell>
        <mxCell id="ezP-FfUYO0c9itSm-DeL-81" value="確認/受付票の発行" style="ellipse;shape=umlControl;whiteSpace=wrap;html=1;" vertex="1" parent="1">
          <mxGeometry x="2530" y="540" width="70" height="80" as="geometry" />
        </mxCell>
        <mxCell id="ezP-FfUYO0c9itSm-DeL-82" value="メッセージ表示" style="ellipse;shape=umlEntity;whiteSpace=wrap;html=1;" vertex="1" parent="1">
          <mxGeometry x="2750" y="550" width="80" height="80" as="geometry" />
        </mxCell>
        <mxCell id="ezP-FfUYO0c9itSm-DeL-85" value="" style="endArrow=classic;html=1;rounded=0;entryX=0;entryY=0.5;entryDx=0;entryDy=0;exitX=0.948;exitY=0.59;exitDx=0;exitDy=0;exitPerimeter=0;" edge="1" parent="1" source="ezP-FfUYO0c9itSm-DeL-81" target="ezP-FfUYO0c9itSm-DeL-82">
          <mxGeometry width="50" height="50" relative="1" as="geometry">
            <mxPoint x="2310" y="650" as="sourcePoint" />
            <mxPoint x="2360" y="600" as="targetPoint" />
          </mxGeometry>
        </mxCell>
        <mxCell id="ezP-FfUYO0c9itSm-DeL-86" value="" style="endArrow=classic;html=1;rounded=0;exitX=0.987;exitY=0.576;exitDx=0;exitDy=0;exitPerimeter=0;" edge="1" parent="1" source="ezP-FfUYO0c9itSm-DeL-75" target="ezP-FfUYO0c9itSm-DeL-81">
          <mxGeometry width="50" height="50" relative="1" as="geometry">
            <mxPoint x="2310" y="650" as="sourcePoint" />
            <mxPoint x="2360" y="600" as="targetPoint" />
          </mxGeometry>
        </mxCell>
        <mxCell id="ezP-FfUYO0c9itSm-DeL-87" value="必要に応じて" style="text;html=1;align=center;verticalAlign=middle;whiteSpace=wrap;rounded=0;" vertex="1" parent="1">
          <mxGeometry x="2380" y="510" width="60" height="30" as="geometry" />
        </mxCell>
        <mxCell id="ezP-FfUYO0c9itSm-DeL-88" value="受付票/案内" style="text;html=1;align=center;verticalAlign=middle;whiteSpace=wrap;rounded=0;" vertex="1" parent="1">
          <mxGeometry x="2650" y="555" width="60" height="30" as="geometry" />
        </mxCell>
        <mxCell id="ezP-FfUYO0c9itSm-DeL-89" value="" style="endArrow=block;dashed=1;endFill=0;endSize=12;html=1;rounded=0;" edge="1" parent="1" source="ezP-FfUYO0c9itSm-DeL-58" target="ezP-FfUYO0c9itSm-DeL-82">
          <mxGeometry width="160" relative="1" as="geometry">
            <mxPoint x="1900" y="900" as="sourcePoint" />
            <mxPoint x="2060" y="900" as="targetPoint" />
            <Array as="points">
              <mxPoint x="2280" y="430" />
            </Array>
          </mxGeometry>
        </mxCell>
        <mxCell id="ezP-FfUYO0c9itSm-DeL-90" value="" style="endArrow=block;dashed=1;endFill=0;endSize=12;html=1;rounded=0;entryX=0;entryY=0;entryDx=0;entryDy=0;" edge="1" parent="1" source="ezP-FfUYO0c9itSm-DeL-39" target="ezP-FfUYO0c9itSm-DeL-82">
          <mxGeometry width="160" relative="1" as="geometry">
            <mxPoint x="1290" y="890" as="sourcePoint" />
            <mxPoint x="1450" y="890" as="targetPoint" />
            <Array as="points">
              <mxPoint x="1000" y="400" />
              <mxPoint x="1810" y="390" />
              <mxPoint x="2400" y="390" />
            </Array>
          </mxGeometry>
        </mxCell>
        <mxCell id="ezP-FfUYO0c9itSm-DeL-92" value="" style="endArrow=block;dashed=1;endFill=0;endSize=12;html=1;rounded=0;" edge="1" parent="1" source="ezP-FfUYO0c9itSm-DeL-51" target="ezP-FfUYO0c9itSm-DeL-82">
          <mxGeometry width="160" relative="1" as="geometry">
            <mxPoint x="1760" y="850" as="sourcePoint" />
            <mxPoint x="1920" y="850" as="targetPoint" />
            <Array as="points">
              <mxPoint x="2110" y="800" />
            </Array>
          </mxGeometry>
        </mxCell>
        <mxCell id="ezP-FfUYO0c9itSm-DeL-93" value="" style="endArrow=block;dashed=1;endFill=0;endSize=12;html=1;rounded=0;entryX=0;entryY=0.5;entryDx=0;entryDy=0;" edge="1" parent="1" source="ezP-FfUYO0c9itSm-DeL-58" target="ezP-FfUYO0c9itSm-DeL-82">
          <mxGeometry width="160" relative="1" as="geometry">
            <mxPoint x="2080" y="850" as="sourcePoint" />
            <mxPoint x="2240" y="850" as="targetPoint" />
            <Array as="points">
              <mxPoint x="2240" y="720" />
            </Array>
          </mxGeometry>
        </mxCell>
        <mxCell id="ezP-FfUYO0c9itSm-DeL-94" value="" style="endArrow=block;dashed=1;endFill=0;endSize=12;html=1;rounded=0;exitX=0.873;exitY=0.329;exitDx=0;exitDy=0;exitPerimeter=0;" edge="1" parent="1" source="ezP-FfUYO0c9itSm-DeL-71">
          <mxGeometry width="160" relative="1" as="geometry">
            <mxPoint x="1800" y="770" as="sourcePoint" />
            <mxPoint x="2760" y="590" as="targetPoint" />
            <Array as="points">
              <mxPoint x="2280" y="470" />
            </Array>
          </mxGeometry>
        </mxCell>
        <mxCell id="ezP-FfUYO0c9itSm-DeL-95" value="A3:検討なし-&amp;gt;口頭案内/再入力" style="text;html=1;align=center;verticalAlign=middle;whiteSpace=wrap;rounded=0;" vertex="1" parent="1">
          <mxGeometry x="2140" y="790" width="60" height="30" as="geometry" />
        </mxCell>
        <mxCell id="ezP-FfUYO0c9itSm-DeL-96" value="A4：学生×雑誌-&amp;gt;予約不可" style="text;html=1;align=center;verticalAlign=middle;whiteSpace=wrap;rounded=0;" vertex="1" parent="1">
          <mxGeometry x="2200" y="715" width="60" height="30" as="geometry" />
        </mxCell>
        <mxCell id="ezP-FfUYO0c9itSm-DeL-97" value="A1：会員未登録-&amp;gt;受付不可" style="text;html=1;align=center;verticalAlign=middle;whiteSpace=wrap;rounded=0;" vertex="1" parent="1">
          <mxGeometry x="1490" y="360" width="60" height="30" as="geometry" />
        </mxCell>
        <mxCell id="ezP-FfUYO0c9itSm-DeL-98" value="A6:障害発生-&amp;gt;&lt;div&gt;予約保留/後処理&lt;/div&gt;" style="text;html=1;align=center;verticalAlign=middle;whiteSpace=wrap;rounded=0;" vertex="1" parent="1">
          <mxGeometry x="2400" y="450" width="60" height="30" as="geometry" />
        </mxCell>
      </root>
    </mxGraphModel>
  </diagram>
</mxfile>
